<svg width="21" height="21" viewBox="0 0 21 21" fill="none" xmlns="http://www.w3.org/2000/svg">
<path d="M7.22949 19.7395C7.54015 19.7395 7.79199 19.4877 7.79199 19.177C7.79199 18.8663 7.54015 18.6145 7.22949 18.6145C6.91883 18.6145 6.66699 18.8663 6.66699 19.177C6.66699 19.4877 6.91883 19.7395 7.22949 19.7395Z" fill="#22262A" stroke="#22262A" stroke-width="2" stroke-miterlimit="10" stroke-linecap="round" stroke-linejoin="round"/>
<path d="M15.1045 19.7395C15.4152 19.7395 15.667 19.4877 15.667 19.177C15.667 18.8663 15.4152 18.6145 15.1045 18.6145C14.7938 18.6145 14.542 18.8663 14.542 19.177C14.542 19.4877 14.7938 19.7395 15.1045 19.7395Z" fill="#22262A" stroke="#22262A" stroke-width="2" stroke-miterlimit="10" stroke-linecap="round" stroke-linejoin="round"/>
<path d="M1.04199 1.7395H3.29199L5.54199 15.2395H16.792L19.042 5.1145H4.41699" stroke="#22262A" stroke-width="2" stroke-linecap="round" stroke-linejoin="round"/>
</svg>
