<svg width="76" height="60" viewBox="0 0 76 60" fill="none" xmlns="http://www.w3.org/2000/svg">
<rect x="0.0419922" y="0.739502" width="75" height="59" fill="white"/>
<path d="M35.2295 37.7395C35.5402 37.7395 35.792 37.4877 35.792 37.177C35.792 36.8663 35.5402 36.6145 35.2295 36.6145C34.9188 36.6145 34.667 36.8663 34.667 37.177C34.667 37.4877 34.9188 37.7395 35.2295 37.7395Z" fill="#22262A" stroke="#22262A" stroke-width="2" stroke-miterlimit="10" stroke-linecap="round" stroke-linejoin="round"/>
<path d="M43.1045 37.7395C43.4152 37.7395 43.667 37.4877 43.667 37.177C43.667 36.8663 43.4152 36.6145 43.1045 36.6145C42.7938 36.6145 42.542 36.8663 42.542 37.177C42.542 37.4877 42.7938 37.7395 43.1045 37.7395Z" fill="#22262A" stroke="#22262A" stroke-width="2" stroke-miterlimit="10" stroke-linecap="round" stroke-linejoin="round"/>
<path d="M29.042 19.7395H31.292L33.542 33.2395H44.792L47.042 23.1145H32.417" stroke="#22262A" stroke-width="2" stroke-linecap="round" stroke-linejoin="round"/>
<circle cx="50.042" cy="16.7395" r="11" fill="#FB7181" stroke="white" stroke-width="2"/>
<path d="M47.5755 20.6395H52.5955V19.2495H49.8955C51.0555 18.3595 52.4855 17.0795 52.4855 15.4795C52.4855 14.2495 51.7455 13.2795 50.0855 13.2795C48.7555 13.2795 47.6055 14.0395 47.5555 15.8095H49.2055C49.2055 15.1195 49.5055 14.7195 50.0155 14.7195C50.5355 14.7195 50.7755 15.0595 50.7755 15.5895C50.7755 16.8195 49.1255 18.0895 47.5755 19.3695V20.6395Z" fill="white"/>
</svg>
