<svg width="21" height="21" viewBox="0 0 21 21" fill="none" xmlns="http://www.w3.org/2000/svg">
<path fill-rule="evenodd" clip-rule="evenodd" d="M20.8104 17.1786C20.327 15.8903 19.5858 14.7143 18.6322 13.7228C17.6786 12.7313 16.5327 11.9451 15.2648 11.4124C15.9543 10.8457 16.5111 10.1344 16.8959 9.32878C17.2807 8.52315 17.4841 7.6428 17.4918 6.7499C17.4669 5.18505 16.8634 3.68497 15.7979 2.53943C14.7323 1.39389 13.2804 0.684164 11.7226 0.547397C11.2124 0.48412 10.6965 0.48412 10.1863 0.547397C8.62937 0.685332 7.17864 1.39557 6.11415 2.54099C5.04967 3.68642 4.44685 5.18583 4.42206 6.7499C4.42948 7.64285 4.63279 8.52327 5.0176 9.32893C5.40242 10.1346 5.95939 10.8459 6.64909 11.4124C5.3809 11.9449 4.23474 12.731 3.28092 13.7225C2.32709 14.714 1.5857 15.8901 1.10219 17.1786C0.965799 17.5554 0.925311 17.9602 0.984406 18.3565C1.0435 18.7528 1.20032 19.1281 1.44067 19.4486C1.69008 19.7778 2.01278 20.0442 2.38311 20.2267C2.75344 20.4092 3.16122 20.5027 3.574 20.4999H18.3486C18.761 20.5026 19.1684 20.4091 19.5383 20.2266C19.9082 20.0441 20.2305 19.7777 20.4795 19.4486C20.7192 19.1278 20.875 18.7521 20.9328 18.3557C20.9906 17.9593 20.9485 17.5546 20.8104 17.1786ZM7.03628 6.7499C7.05355 5.8021 7.42368 4.89487 8.07425 4.20588C8.72481 3.51688 9.60893 3.09573 10.5535 3.02489C10.8227 2.99155 11.0949 2.99155 11.3641 3.02489C12.0745 3.13389 12.7388 3.44447 13.2782 3.91978C13.8176 4.39508 14.2095 5.01519 14.4075 5.70662C14.6054 6.39804 14.6012 7.13176 14.3952 7.82083C14.1891 8.5099 13.79 9.12541 13.2452 9.5944C12.7003 10.0634 12.0325 10.3662 11.3209 10.4669C10.6093 10.5676 9.88369 10.462 9.23022 10.1626C8.57675 9.86326 8.02277 9.38266 7.63392 8.77779C7.24506 8.17291 7.03766 7.46914 7.03628 6.7499ZM3.57148 17.9999C4.16342 16.5237 5.18335 15.2587 6.49994 14.3677C7.81652 13.4767 9.36949 13.0006 10.9588 13.0006C12.5482 13.0006 14.1011 13.4767 15.4177 14.3677C16.7343 15.2587 17.7542 16.5237 18.3461 17.9999H3.574H3.57148Z" fill="#22262A"/>
</svg>
