<svg width="22" height="21" viewBox="0 0 22 21" fill="none" xmlns="http://www.w3.org/2000/svg">
<path fill-rule="evenodd" clip-rule="evenodd" d="M20.7067 18.7179L14.3987 12.3808C15.5304 10.7747 16.0175 8.80205 15.7635 6.85372C15.5095 4.90539 14.533 3.12356 13.0273 1.86123C11.5217 0.598893 9.59677 -0.0518366 7.63401 0.037985C5.67125 0.127807 3.81385 0.951575 2.42978 2.34615C1.04572 3.74073 0.23596 5.60433 0.160986 7.56771C0.0860119 9.53109 0.751283 11.451 2.02497 12.9471C3.29866 14.4432 5.08784 15.4062 7.03803 15.6455C8.98822 15.8847 10.9571 15.3827 12.5547 14.2389L18.8627 20.5769C18.984 20.7008 19.1288 20.7994 19.2886 20.867C19.4485 20.9345 19.6201 20.9695 19.7936 20.9701C19.9671 20.9707 20.1389 20.9368 20.2992 20.8704C20.4595 20.804 20.6049 20.7064 20.7271 20.5832C20.8494 20.4601 20.9459 20.3139 21.0111 20.1531C21.0763 19.9923 21.1089 19.8202 21.107 19.6467C21.1051 19.4733 21.0687 19.3019 21 19.1426C20.9313 18.9833 20.8316 18.8393 20.7067 18.7188V18.7179ZM8.01768 13.0758C6.97672 13.0816 5.95749 12.7781 5.08918 12.204C4.22086 11.6299 3.54254 10.8109 3.1402 9.85079C2.73786 8.89072 2.62961 7.83278 2.82917 6.81112C3.02872 5.78946 3.52711 4.85007 4.26114 4.11196C4.99518 3.37385 5.93183 2.87026 6.95237 2.66506C7.97291 2.45986 9.03141 2.56229 9.99369 2.95931C10.956 3.35633 11.7787 4.0301 12.3576 4.89522C12.9366 5.76035 13.2457 6.77784 13.2457 7.81881C13.2457 9.20804 12.6958 10.5409 11.7162 11.5259C10.7366 12.5109 9.40689 13.0682 8.01768 13.0758Z" fill="#22262A"/>
</svg>
